<?xml version="1.0" standalone="no"?>
<svg xmlns="http://www.w3.org/2000/svg" xmlns:xlink="http://www.w3.org/1999/xlink" height="480px" width="720px">
  <defs>
    <pattern id="doodad" width="7" height="7" viewBox="0 0 40 40" patternUnits="userSpaceOnUse" patternTransform="rotate(141)">
      <rect width="100%" height="100%" fill="#2a4365"/>
      <path d="M-20 30.5l20-20l20 20l20-20l20 20l20-20l20 20v-1l-20-20l-20 20l-20-20l-20 20l-20-20l-20 20zM-20-9.5l20-20l20 20l20-20l20 20l20-20l20 20v-1l-20-20l-20 20l-20-20l-20 20l-20-20l-20 20zM-20 70.5l20-20l20 20l20-20l20 20l20-20l20 20v-1l-20-20l-20 20l-20-20l-20 20l-20-20l-20 20z " fill="rgba(233, 216, 253,1)"/>
      <path d="M0 30.5l20-20l20 20l20-20l20 20l20-20l20 20v-1l-20-20l-20 20l-20-20l-20 20l-20-20l-20 20zM0-9.5l20-20l20 20l20-20l20 20l20-20l20 20v-1l-20-20l-20 20l-20-20l-20 20l-20-20l-20 20zM0 70.5l20-20l20 20l20-20l20 20l20-20l20 20v- 1l-20-20l-20 20l-20-20l-20 20l-20-20l-20 20z " fill="rgba(116, 66, 16,1)"/>
      <path d="M-20 30.5l20-20v-1l-20 20zM20 30.5l20-20v-1l-20 20z" fill="rgba(233, 216, 253,1)"/>
    </pattern>
  </defs>
  <rect fill="url(#doodad)" height="200%" width="200%"/>
</svg>
